<?xml version="1.0" standalone="no"?>
<!DOCTYPE svg PUBLIC "-//W3C//DTD SVG 20010904//EN"
 "http://www.w3.org/TR/2001/REC-SVG-20010904/DTD/svg10.dtd">
<svg version="1.0" xmlns="http://www.w3.org/2000/svg"
 width="600.000000pt" height="600.000000pt" viewBox="0 0 600.000000 600.000000"
 preserveAspectRatio="xMidYMid meet">
<metadata>
Created by potrace 1.11, written by Peter Selinger 2001-2013
</metadata>
<g transform="translate(0.000000,600.000000) scale(0.100000,-0.100000)"
fill="#000000" stroke="none">
<path d="M939 5996 c-2 -2 -24 -6 -49 -9 -25 -3 -85 -18 -134 -32 -391 -114
-688 -456 -745 -858 -7 -48 -10 -757 -8 -2142 l2 -2070 24 -84 c109 -391 381
-663 772 -772 l84 -24 2080 -2 c1221 -1 2101 2 2130 7 134 25 177 37 276 80
294 129 529 411 600 719 19 83 20 94 26 301 l5 205 -54 -55 c-122 -122 -213
-182 -383 -253 -33 -14 -73 -28 -90 -31 -24 -6 -38 -21 -69 -76 -94 -167 -275
-315 -466 -382 -140 -49 -67 -48 -2080 -45 -1037 1 -1897 6 -1911 10 -74 20
-151 48 -190 68 -149 75 -231 196 -231 339 0 142 77 258 221 334 63 33 173 68
251 80 19 3 935 6 2035 6 1100 1 2020 5 2045 10 25 4 59 11 75 14 190 34 397
146 544 296 116 118 223 307 269 475 l27 100 0 1425 c0 784 -3 1448 -7 1475
-48 328 -265 627 -564 779 -64 32 -134 61 -174 71 -8 3 -42 12 -75 22 -56 16
-200 17 -2146 20 -1147 2 -2087 1 -2090 -1z m757 -940 c13 -3 52 -10 86 -16
158 -29 402 -136 593 -261 101 -65 206 -142 245 -179 9 -8 34 -30 55 -48 87
-73 261 -252 309 -318 13 -17 15 -16 42 16 360 431 890 761 1294 807 362 41
616 -114 718 -437 55 -175 56 -182 56 -1406 l1 -1081 -30 -49 c-17 -26 -50
-62 -74 -79 l-43 -30 -238 -3 c-257 -4 -273 -1 -303 52 -8 16 -12 286 -12
1076 -1 580 -5 1066 -9 1080 -15 45 -48 82 -90 100 -247 109 -762 -238 -920
-617 -40 -98 -52 -142 -61 -238 -3 -27 -7 -68 -10 -90 -2 -22 -7 -76 -10 -120
-3 -44 -8 -93 -10 -110 -2 -16 -7 -68 -10 -115 -3 -47 -8 -101 -10 -120 -3
-19 -7 -60 -10 -90 -8 -68 -40 -121 -92 -145 -31 -15 -62 -19 -163 -19 -145 0
-187 14 -225 73 -22 34 -28 61 -39 176 -13 132 -18 184 -22 230 -11 147 -25
305 -29 340 -33 279 -228 556 -519 739 -132 83 -231 119 -339 122 -92 3 -125
-5 -165 -40 -58 -51 -55 2 -56 -1152 -1 -1001 -2 -1062 -19 -1088 -10 -15 -29
-31 -43 -36 -14 -6 -123 -10 -243 -10 -236 0 -258 4 -320 56 -18 15 -42 45
-54 68 l-21 41 0 1085 c0 1049 3 1188 24 1288 69 315 241 500 507 545 72 13
198 14 259 3z"/>
</g>
</svg>
