<?xml version="1.0" standalone="no"?>
<!DOCTYPE svg PUBLIC "-//W3C//DTD SVG 20010904//EN"
 "http://www.w3.org/TR/2001/REC-SVG-20010904/DTD/svg10.dtd">
<svg version="1.0" xmlns="http://www.w3.org/2000/svg"
 width="600.000000pt" height="600.000000pt" viewBox="0 0 600.000000 600.000000"
 preserveAspectRatio="xMidYMid meet">
<metadata>
Created by potrace 1.11, written by Peter Selinger 2001-2013
</metadata>
<g transform="translate(0.000000,600.000000) scale(0.100000,-0.100000)"
fill="#000000" stroke="none">
<path d="M731 5985 c-243 -53 -443 -185 -573 -378 -69 -101 -127 -242 -145
-355 -5 -26 -8 -1084 -8 -2352 l0 -2305 28 -85 c84 -257 254 -414 538 -498 13
-4 1095 -8 2404 -9 2674 -3 2452 -9 2625 75 81 39 108 59 185 136 102 103 160
203 194 336 18 73 19 143 17 2380 -1 1268 -5 2319 -9 2335 -18 74 -41 144 -63
193 -13 29 -24 54 -24 57 0 2 -19 32 -42 67 -142 215 -306 328 -587 405 -14 4
-1027 8 -2251 10 -1868 1 -2235 -1 -2289 -12z m1034 -970 c156 -33 349 -109
520 -208 231 -132 513 -372 685 -585 29 -34 31 -34 78 23 78 92 255 264 362
349 496 397 995 537 1330 373 132 -65 247 -211 300 -382 24 -78 24 -79 35
-150 4 -27 10 -61 12 -75 11 -58 8 -2214 -3 -2256 -14 -56 -55 -109 -107 -137
-39 -21 -56 -22 -267 -25 -137 -2 -236 1 -252 7 -15 6 -35 22 -45 38 -17 26
-18 83 -19 1083 0 580 -4 1066 -8 1080 -5 14 -19 40 -33 58 -134 179 -613 -33
-867 -383 -90 -125 -155 -281 -170 -410 -8 -78 -17 -172 -21 -223 -12 -173
-25 -311 -40 -442 -15 -119 -76 -163 -230 -164 -119 -1 -178 8 -213 34 -53 39
-64 72 -77 227 -3 32 -7 78 -10 103 -8 82 -20 220 -30 350 -18 235 -66 371
-190 535 -188 250 -482 434 -696 437 -100 1 -169 -42 -195 -122 -4 -14 -8
-500 -8 -1080 -1 -1000 -2 -1057 -19 -1083 -10 -16 -29 -32 -43 -37 -35 -14
-429 -12 -479 1 -55 15 -99 51 -132 107 l-28 46 1 1081 c0 594 3 1118 7 1165
10 115 49 257 99 359 53 109 151 211 251 259 37 18 78 36 90 39 133 33 276 36
412 8z m3763 -3690 l-3 -390 -27 -74 c-47 -128 -123 -226 -234 -300 -77 -52
-164 -85 -254 -98 -30 -5 -986 -8 -2125 -7 -2285 1 -2122 -4 -2225 62 -288
185 -237 610 86 721 59 20 75 20 2099 21 1122 0 2056 3 2075 6 167 25 343 130
455 272 56 70 121 198 138 271 l12 53 3 -73 c2 -41 2 -249 0 -464z"/>
</g>
</svg>
