<?xml version="1.0" standalone="no"?>
<!DOCTYPE svg PUBLIC "-//W3C//DTD SVG 20010904//EN"
 "http://www.w3.org/TR/2001/REC-SVG-20010904/DTD/svg10.dtd">
<svg version="1.0" xmlns="http://www.w3.org/2000/svg"
 width="600.000000pt" height="600.000000pt" viewBox="0 0 600.000000 600.000000"
 preserveAspectRatio="xMidYMid meet">
<metadata>
Created by potrace 1.11, written by Peter Selinger 2001-2013
</metadata>
<g transform="translate(0.000000,600.000000) scale(0.100000,-0.100000)"
fill="#000000" stroke="none">
<path d="M939 5996 c-2 -2 -24 -6 -49 -9 -25 -3 -85 -18 -134 -32 -391 -114
-688 -456 -745 -858 -7 -48 -10 -757 -8 -2142 l2 -2070 24 -84 c110 -392 380
-662 772 -772 l84 -24 2080 -2 c1221 -1 2101 2 2130 7 134 25 177 37 276 80
207 91 396 267 507 472 50 92 91 217 110 333 9 52 9 4146 0 4205 -49 334 -263
631 -564 784 -64 32 -134 61 -174 71 -8 3 -42 12 -75 22 -56 16 -200 17 -2146
20 -1147 2 -2087 1 -2090 -1z m791 -981 c221 -40 432 -130 665 -284 55 -36
107 -71 115 -78 8 -6 42 -33 75 -60 112 -89 257 -229 364 -351 l54 -61 27 37
c62 83 301 314 419 402 18 14 38 30 44 36 7 5 57 40 112 76 291 190 569 291
818 297 204 5 388 -77 503 -224 86 -109 145 -282 161 -470 4 -44 7 -564 7
-1155 0 -1023 -1 -1077 -18 -1113 -29 -59 -79 -102 -138 -119 -41 -12 -99 -15
-263 -14 -226 2 -247 6 -267 54 -8 19 -12 327 -13 1082 -2 804 -5 1062 -14
1085 -43 105 -156 136 -321 88 -151 -43 -312 -144 -445 -279 -99 -100 -112
-115 -157 -184 -99 -152 -137 -271 -153 -480 -4 -47 -8 -101 -10 -120 -2 -19
-6 -73 -10 -120 -3 -47 -8 -101 -10 -120 -2 -19 -7 -64 -10 -100 -14 -148 -22
-176 -67 -217 -33 -30 -90 -43 -196 -43 -114 0 -173 14 -208 49 -40 40 -46 62
-60 216 -3 39 -8 86 -9 105 -2 19 -7 69 -10 110 -3 41 -7 93 -10 115 -2 22 -7
74 -10 115 -9 108 -14 147 -30 218 -71 307 -415 651 -740 740 -141 39 -248 13
-296 -72 l-23 -41 -1 -1060 c-1 -583 -4 -1069 -8 -1080 -4 -11 -20 -29 -35
-40 -25 -19 -43 -20 -257 -20 -222 0 -232 1 -275 23 -50 27 -82 60 -107 112
-16 32 -17 114 -17 1125 0 600 3 1115 7 1145 19 168 40 247 94 356 127 259
396 378 723 319z m3960 -4095 c-26 -113 -73 -192 -171 -291 -121 -122 -221
-185 -369 -230 l-75 -23 -2095 0 c-1152 0 -2115 3 -2140 6 -159 22 -327 143
-407 296 -62 115 -71 198 -39 348 29 140 101 241 209 290 l62 29 2359 2 c2654
1 2426 -5 2590 78 l81 41 3 -251 c1 -150 -2 -268 -8 -295z"/>
</g>
</svg>
